<?xml version="1.0" standalone="no"?>
<!DOCTYPE svg PUBLIC "-//W3C//DTD SVG 20010904//EN"
 "http://www.w3.org/TR/2001/REC-SVG-20010904/DTD/svg10.dtd">
<svg version="1.0" xmlns="http://www.w3.org/2000/svg"
 width="2284.000000pt" height="669.000000pt" viewBox="0 0 2284.000000 669.000000"
 preserveAspectRatio="xMidYMid meet">

<g transform="translate(0.000000,669.000000) scale(0.100000,-0.100000)"
fill="#000000" stroke="none">
<path d="M6620 6671 c0 -5 -6 -16 -13 -23 -6 -7 -32 -38 -57 -68 -25 -30 -49
-60 -55 -66 -5 -6 -46 -55 -90 -109 -85 -105 -312 -380 -376 -455 -20 -25 -53
-64 -71 -87 -58 -72 -152 -187 -174 -213 -12 -14 -59 -70 -104 -125 -45 -55
-91 -111 -104 -125 -12 -14 -39 -47 -61 -75 -21 -27 -44 -54 -50 -60 -6 -5
-31 -35 -56 -66 -97 -123 -174 -214 -186 -222 -38 -23 6 -27 337 -27 l350 0 0
-1313 c0 -1399 1 -1423 50 -1660 97 -470 335 -912 675 -1252 340 -340 782
-578 1252 -675 179 -37 335 -50 610 -50 l263 0 0 725 0 725 -229 0 c-318 0
-439 24 -627 124 -287 153 -489 440 -533 760 -7 52 -11 491 -11 1347 l0 1269
345 0 c190 0 345 3 345 6 0 3 -42 56 -93 117 -382 460 -1169 1415 -1265 1534
-54 69 -72 84 -72 64z"/>
<path d="M3288 3268 c-3 -955 -3 -964 -25 -1040 -107 -378 -373 -643 -751
-751 -77 -22 -77 -22 -1290 -25 l-1213 -2 6 -23 c11 -36 124 -235 185 -327
582 -869 1651 -1279 2665 -1024 952 239 1678 1025 1839 1989 33 193 36 305 36
1231 l0 934 -725 0 -724 0 -3 -962z"/>
<path d="M18175 4188 c-362 -40 -696 -169 -1008 -388 -122 -85 -382 -345 -467
-467 -134 -192 -226 -372 -294 -578 -37 -110 -86 -324 -86 -373 0 -15 -4 -32
-9 -37 -5 -6 -17 -58 -26 -118 -24 -157 -58 -267 -126 -405 -51 -103 -73 -136
-141 -207 -63 -67 -96 -93 -154 -121 -124 -62 -262 -57 -380 12 -223 131 -387
479 -411 870 l-6 104 -437 0 -437 0 -7 -97 c-32 -434 -199 -769 -442 -890 -74
-36 -83 -38 -174 -38 -91 0 -100 2 -173 38 -244 121 -411 458 -443 895 l-7 92
-432 0 -433 0 -6 -87 c-35 -448 -198 -779 -443 -900 -73 -36 -82 -38 -172 -38
-84 0 -104 4 -155 27 -136 65 -241 178 -326 352 -77 159 -122 338 -136 549
l-7 97 -437 0 -438 0 -6 -87 c-35 -448 -198 -779 -443 -900 l-77 -38 -263 -3
-263 -3 0 -725 0 -724 249 0 c330 0 427 17 610 107 200 99 418 305 573 543 27
41 51 75 53 75 2 0 31 -40 65 -89 92 -135 150 -204 258 -308 154 -147 304
-238 489 -295 80 -24 103 -27 248 -27 185 -1 254 14 412 89 223 105 447 311
600 552 l46 72 59 -87 c212 -310 464 -513 745 -599 80 -24 102 -27 253 -27
151 0 172 3 255 28 105 32 216 86 317 153 142 94 342 309 453 485 17 27 32 48
35 48 3 0 15 -18 28 -40 44 -78 171 -237 261 -326 159 -159 325 -262 516 -320
82 -25 104 -28 250 -28 190 0 260 16 419 93 231 111 425 294 602 566 l65 100
152 -150 c155 -154 261 -236 429 -334 246 -143 540 -238 840 -270 62 -7 496
-11 1203 -11 l1105 0 0 1105 c0 707 -4 1141 -11 1203 -40 377 -166 706 -389
1025 -85 122 -345 382 -467 467 -319 223 -648 349 -1025 389 -113 13 -319 12
-433 -1z m405 -1338 c282 -68 502 -288 570 -570 18 -79 20 -117 20 -517 l0
-433 -432 0 c-401 0 -439 2 -518 20 -347 84 -590 392 -590 750 0 499 465 866
950 750z"/>
</g>
</svg>
