<?xml version="1.0" standalone="no"?>
<!DOCTYPE svg PUBLIC "-//W3C//DTD SVG 20010904//EN"
 "http://www.w3.org/TR/2001/REC-SVG-20010904/DTD/svg10.dtd">
<svg version="1.0" xmlns="http://www.w3.org/2000/svg"
 width="1058.000000pt" height="379.000000pt" viewBox="0 0 1058.000000 379.000000"
 preserveAspectRatio="xMidYMid meet">

<g transform="translate(0.000000,379.000000) scale(0.100000,-0.100000)"
fill="#000000" stroke="none">
<path d="M2643 3668 l-113 -111 0 -51 1 -51 107 113 c59 62 114 112 123 112
10 0 65 -51 123 -112 l106 -113 0 51 0 51 -110 109 c-61 60 -114 110 -118 111
-4 2 -58 -47 -119 -109z"/>
<path d="M2642 3457 l-112 -112 0 -1653 0 -1652 548 0 c560 0 736 8 877 36
216 43 363 143 450 305 l31 58 37 -72 c88 -172 243 -288 451 -337 102 -25 170
-25 272 0 208 49 363 165 451 337 l37 72 31 -58 c115 -215 343 -325 675 -325
332 0 560 110 675 325 l31 58 37 -72 c95 -184 257 -298 497 -347 174 -36 364
-14 518 61 113 54 219 159 278 272 l40 78 32 -49 c79 -123 240 -239 414 -298
204 -69 403 -84 1131 -84 l539 0 -5 708 c-4 751 -6 787 -57 983 -78 302 -264
521 -533 629 -218 87 -548 109 -807 55 -456 -96 -775 -428 -878 -916 -27 -126
-31 -168 -42 -419 -11 -238 -29 -344 -78 -453 -77 -170 -210 -238 -435 -223
-56 3 -121 11 -145 16 -165 39 -267 160 -314 373 -18 81 -21 139 -25 469 l-5
378 -219 0 -219 0 0 -349 c0 -454 -18 -563 -111 -681 -64 -81 -210 -150 -319
-150 -109 0 -255 69 -319 150 -93 118 -111 227 -111 681 l0 349 -219 0 -219 0
-5 -377 c-4 -331 -7 -389 -25 -470 -58 -262 -194 -383 -432 -383 -238 0 -374
121 -432 383 -18 81 -21 139 -25 470 l-5 377 -219 0 -219 0 0 -349 c0 -264 -4
-369 -15 -434 -38 -217 -117 -316 -305 -379 -61 -21 -86 -22 -457 -26 l-393
-4 0 1469 0 1468 -113 113 c-62 61 -115 112 -117 112 -3 0 -56 -51 -118 -113z
m6964 -1422 c230 -40 386 -178 462 -408 55 -167 62 -251 62 -786 l0 -481 -325
0 c-179 0 -369 5 -421 11 -300 33 -489 144 -582 341 -67 140 -77 201 -76 448
1 200 3 222 27 315 50 185 144 343 255 429 166 127 366 171 598 131z"/>
<path d="M1220 1838 c0 -835 -3 -888 -50 -1043 -52 -166 -150 -294 -271 -354
-110 -53 -176 -65 -354 -65 -169 0 -256 11 -394 51 -67 19 -86 21 -92 11 -5
-7 -9 -92 -9 -189 l0 -177 42 -10 c181 -45 515 -58 698 -28 459 75 721 312
834 751 47 184 49 230 53 1053 l5 782 -231 0 -231 0 0 -782z"/>
</g>
</svg>
